<svg xmlns="http://www.w3.org/2000/svg" width="1367.182" height="292" viewBox="0 0 1367.182 292">
  <g id="Group_2" data-name="Group 2" transform="translate(-261.818 -459)">
    <rect id="Rectangle_1" data-name="Rectangle 1" width="1367" height="292" transform="translate(262 459)" fill="none" opacity="0.18"/>
    <path id="Path_6" data-name="Path 6" d="M420.5,27.255C415.663,25.985,406.059-1.8,413.657.049c42.336,10.874,81.442,35.05,114.865,57a273.226,273.226,0,0,1,87.168,92.293c5.036,8.311-8.066,11.676-12.322,4.7-19.43-33.29-38.147-60.942-69.9-81.821C500.536,50.607,462.478,38.04,420.5,27.255ZM853.221,165.562c3.5,1.894,29.569-14.8,24.176-17.826-30.059-16.222-67.672-23.419-102.989-23.686-36.61-.29-77.587,12.523-123.244,35.162-9.693,4.657-5.392,13.5,2.785,9.626,38.526-19.1,72.8-30.482,106.443-30.237,34.872.267,63.17,10.874,92.94,26.962Zm-162.082-57.4c-26.07,28.254-52.3-11.3-67.4-31.864-4.791-4.768-18.984-.134-12.545,7.108,18.985,25.848,54.837,60.029,85.609,26.739,1.025-1.114.6-2.451-.98-2.964A4.813,4.813,0,0,0,691.139,108.163Z" transform="translate(750.416 459.356)" fill="#f20100" fill-rule="evenodd"/>
    <g id="Group_1" data-name="Group 1" transform="translate(-60 22)">
      <path id="Path_1" data-name="Path 1" d="M16.979,36.87H49.623q25.045,0,34.248,6.685c6.105,4.456,8.356,11.721,6.685,22.1L89.464,72.5c-1.6,9.849-6.016,17.091-13.369,21.725S58.268,101.2,44.453,101.2H35.875L29.19,142.221H0ZM631.036,78.382l-10.272,63.75H596.253l.557-10.072a39.753,39.753,0,0,1-10.294,9.247,20.857,20.857,0,0,1-10.54,2.919c-6.685,0-11.141-2.005-13.681-6.083s-3.008-10.272-1.716-18.539l1.693-10.428A21.837,21.837,0,0,1,573.414,92.62c6.239-3.476,16.489-5.682,30.772-6.506l.958-6.016a21.839,21.839,0,0,0,.2-9.515,3.877,3.877,0,0,0-4.122-2.451,6.685,6.685,0,0,0-5.548,2.362,17.938,17.938,0,0,0-2.852,8.178L592.6,80.1H569.982l.245-1.6q2.228-14.238,9.8-19.764t24.511-5.481q17.336,0,23.04,5.459t3.365,19.787ZM601.891,100.8a20.054,20.054,0,0,0-10.406,3.075,12.5,12.5,0,0,0-3.989,8.178l-.891,5.637a18.407,18.407,0,0,0,0,8.913,4.278,4.278,0,0,0,4.456,2.362,6.239,6.239,0,0,0,5.326-2.451,20.924,20.924,0,0,0,2.852-8.913l2.741-16.89ZM518.755,66.127a45.3,45.3,0,0,1,11.253-9.916,22.549,22.549,0,0,1,11.453-3.075q9.76,0,12.768,5.459c2.028,3.632,2.228,10.361.669,20.054L544.67,142.065H519.491l9.8-60.786a16.711,16.711,0,0,0,0-8.222,4.211,4.211,0,0,0-4.278-2.228,6.016,6.016,0,0,0-5.08,2.384A19.7,19.7,0,0,0,517.2,81.39l-9.782,60.786h-25.4l9.8-60.786a16.868,16.868,0,0,0,0-8.178,4.144,4.144,0,0,0-4.278-2.384,5.972,5.972,0,0,0-5.058,2.384,19.34,19.34,0,0,0-2.763,8.178l-9.782,60.786H444.622l13.993-86.9h24.912l-.891,10.072a41.534,41.534,0,0,1,10.651-9.225A21.346,21.346,0,0,1,504,53.158a15.954,15.954,0,0,1,10.851,3.387A12.344,12.344,0,0,1,518.755,66.127ZM440.589,78.382l-10.272,63.75H405.806l.579-10.072a40.108,40.108,0,0,1-10.317,9.247,20.857,20.857,0,0,1-10.584,2.919c-6.685,0-11.141-2.005-13.659-6.083s-3.1-10.272-1.738-18.65l1.671-10.428A21.792,21.792,0,0,1,382.9,92.509c6.239-3.476,16.511-5.682,30.772-6.506l.958-6.016a21.947,21.947,0,0,0,.223-9.515,3.922,3.922,0,0,0-4.122-2.451,6.685,6.685,0,0,0-5.548,2.362,17.669,17.669,0,0,0-2.874,8.178l-.223,1.426h-22.55l.267-1.6q2.228-14.238,9.782-19.764,7.52-5.481,24.511-5.481c11.319,0,19.252,1.827,23.04,5.459s4.9,10.228,3.365,19.787ZM411.443,100.8a20.054,20.054,0,0,0-10.361,3.075,12.3,12.3,0,0,0-3.989,8.178l-.913,5.637a18.4,18.4,0,0,0,0,8.913,4.278,4.278,0,0,0,4.456,2.362,6.239,6.239,0,0,0,5.3-2.451,20.922,20.922,0,0,0,2.852-8.913l2.741-16.89ZM375.5,54.986a7.019,7.019,0,0,1-1.025,0h-.98a17.2,17.2,0,0,0-8.913,2.429,38.906,38.906,0,0,0-9.158,8.155l.958-10.228H331.494l-14.016,86.9h25.669l8.111-50.2q1.6-10.072,6.284-14.016c3.12-2.652,8.133-4.033,14.974-4.145ZM311.619,92.108,309.5,105.254q-3.61,22.282-11.943,30.616t-26.36,8.356q-17.982,0-23.686-8.356t-2.228-30.616l2.228-13.147q3.587-22.282,11.921-30.594t26.293-8.378q18.071,0,23.775,8.334T311.619,92.108Zm-23.708-11.9a20.923,20.923,0,0,0,0-9.559,4.234,4.234,0,0,0-4.456-2.629,6.239,6.239,0,0,0-5.392,2.562,24.2,24.2,0,0,0-2.986,9.537L269.1,117.086a20.856,20.856,0,0,0,0,9.537,4.234,4.234,0,0,0,4.457,2.54,6.306,6.306,0,0,0,5.5-2.629,23.753,23.753,0,0,0,2.986-9.448l5.972-36.966Zm-51.962-1.493L225.72,142.132h-25.8l9.8-60.786a18.985,18.985,0,0,0,0-8.267,3.677,3.677,0,0,0-3.877-2.228,5.593,5.593,0,0,0-4.813,2.429,19.9,19.9,0,0,0-2.629,8.133L188.6,142.2H163.04l14.016-86.9h24.934l-.914,10.072A42.336,42.336,0,0,1,211.682,56.1a21.369,21.369,0,0,1,10.7-2.964c6.506,0,10.807,1.827,12.835,5.481S237.441,69,235.9,78.672Zm-76.919-.334q2.228-14.35-3.365-19.787t-23.04-5.459q-17.113,0-24.511,5.481t-9.8,19.764l-.245,1.6h22.617l.223-1.426a17.937,17.937,0,0,1,2.852-8.178,6.685,6.685,0,0,1,5.481-2.362,3.855,3.855,0,0,1,4.189,2.562,21.837,21.837,0,0,1-.2,9.515l-.958,6.016c-14.283.824-24.511,3.03-30.772,6.506a21.881,21.881,0,0,0-11.141,16.556L88.572,119.6q-2.028,12.567,1.738,18.65c2.5,4.078,7.086,6.083,13.681,6.083a20.856,20.856,0,0,0,10.54-2.919,39.752,39.752,0,0,0,10.25-9.359l-.557,10.072h24.511ZM129.861,100.8l-2.718,16.89a20.567,20.567,0,0,1-2.874,8.913,6.172,6.172,0,0,1-5.3,2.451,4.278,4.278,0,0,1-4.456-2.362,18.116,18.116,0,0,1,0-8.913l.914-5.637a12.389,12.389,0,0,1,3.966-8.178,20.054,20.054,0,0,1,10.384-3.075ZM43.7,52.579l-5.3,32.956h2.763c5.593,0,9.693-.958,12.211-2.919s4.211-5.348,5.014-10.495L59.4,65.859c.8-4.991.223-8.467-1.671-10.384s-5.66-2.9-11.253-2.9Z" transform="translate(321.818 491.689)" fill="#f60" fill-rule="evenodd"/>
      <path id="Path_2" data-name="Path 2" d="M285.67,132.92l13.748-86.9v-.267h14.439v.379L311.629,59.5a49.025,49.025,0,0,1,5.615-6.039,35.293,35.293,0,0,1,6.974-4.924,31.466,31.466,0,0,1,7.621-2.9,36.363,36.363,0,0,1,8.512-.958c6.284,0,11.141,1.315,14.506,3.966a13.727,13.727,0,0,1,3.989,4.991,18.9,18.9,0,0,1,1.6,6.128,57.36,57.36,0,0,1,6.172-6.417,41.178,41.178,0,0,1,7.108-4.969h0a31.953,31.953,0,0,1,15.263-3.9,33.023,33.023,0,0,1,9.537,1.292,20.745,20.745,0,0,1,7.375,3.833,17.537,17.537,0,0,1,4.858,6.083,21.236,21.236,0,0,1,1.916,8.022v4.145c0,.847-.156,1.627-.245,2.518s-.223,1.738-.357,2.652h0l-9.871,60.162v.267H386.141v-.379l10.428-61.811h0a8.947,8.947,0,0,1,.223-1.382l.134-1.248h0V66.407a8.777,8.777,0,0,0-.847-3.5,6.906,6.906,0,0,0-2.094-2.518h0a9.672,9.672,0,0,0-3.387-1.515,18.694,18.694,0,0,0-4.724-.512,21.837,21.837,0,0,0-8.913,1.872,27.631,27.631,0,0,0-8.111,5.459,31.93,31.93,0,0,0-6.194,8.6,37.452,37.452,0,0,0-3.32,10.718h0l-8.044,48v.267h-15.6V132.9l10.049-62.391h0a8.664,8.664,0,0,1,.223-1.248,12.3,12.3,0,0,0,.134-1.27h0V65.805a8.691,8.691,0,0,0-.735-3.186h0a6.685,6.685,0,0,0-1.894-2.362h0a8.646,8.646,0,0,0-2.964-1.493,13.369,13.369,0,0,0-3.944-.512A25.58,25.58,0,0,0,327,60.012a26.583,26.583,0,0,0-8.267,5.325h0a29.792,29.792,0,0,0-6.239,8.111,33.825,33.825,0,0,0-3.187,10.072l-8.4,49.467v.267H285.67Z" transform="translate(672.688 501.035)" fill="#f60"/>
      <path id="Path_3" data-name="Path 3" d="M361.464,82.383H410a8.272,8.272,0,0,0,.156-1.493,18.048,18.048,0,0,0-.111-2.228,23.865,23.865,0,0,0-6.128-16.021A19.541,19.541,0,0,0,389.139,56.8a24.288,24.288,0,0,0-17.469,6.685,34.983,34.983,0,0,0-10.205,18.985Zm60.63,22.817a35.318,35.318,0,0,1-12.7,22.929,40.777,40.777,0,0,1-26.226,8.289q-17.113,0-26.739-9.76t-10.584-28.1c-.824-16.043,2.718-29.212,10.7-39.4a38.481,38.481,0,0,1,31.953-15.152q16.11,0,26.159,9.515T425.5,79.174c0,2.05.111,4.323,0,6.8s-.245,5.259-.535,8.378H359.7v.423c0,2.384-.134,4.033,0,5.014a27.007,27.007,0,0,0,7.665,17.826c4.078,4.122,9.8,6.172,17.135,6.172a22.282,22.282,0,0,0,22.75-18.583Z" transform="translate(746.453 500.434)" fill="#f60"/>
      <path id="Path_4" data-name="Path 4" d="M421.38,132.067,435.128,45.21H449.7l-13.9,86.857Z" transform="translate(839.372 501.933)" fill="#f60"/>
      <path id="Path_5" data-name="Path 5" d="M492.813,89.538A62.525,62.525,0,0,1,475.566,92.7a107.107,107.107,0,0,0-14.06,1.649A15.6,15.6,0,0,0,452.37,99.5a14.126,14.126,0,0,0-2.585,9.76,14.327,14.327,0,0,0,4.456,10.183,15.13,15.13,0,0,0,10.718,3.766,24.087,24.087,0,0,0,19.653-8.6c4.679-5.727,7.442-14.082,8.222-25.134Zm-6.685,44.409,1.114-7.554a33.892,33.892,0,0,1-24.087,9.537q-12.656,0-20.054-7.063a27.653,27.653,0,0,1-8.088-19.542q-.735-13.926,7.754-20.589c5.682-4.456,15.464-7.086,29.435-7.955h1.136q23.53-1.537,22.929-13.08a9.916,9.916,0,0,0-4.456-8.334,24.065,24.065,0,0,0-12.679-2.629c-8.044,0-13.592,1.07-16.578,3.164s-5.036,6.039-6.083,11.765H442.054q1.56-13.7,10.629-20.567t25.8-6.841q15.2,0,23.642,5.325a17.826,17.826,0,0,1,8.913,14.951,19.618,19.618,0,0,1-.156,3.164c-.156,1.426-.446,3.766-.936,7.153l-9.292,59.07Z" transform="translate(856.043 500.766)" fill="#f60"/>
      <path id="Path_7" data-name="Path 7" d="M383.45,133.57l14.261-89.553h30.839a70.926,70.926,0,0,1,15.731,1.292A24.934,24.934,0,0,1,456.4,51.7a29.814,29.814,0,0,1,8.155,15.308,57.442,57.442,0,0,1,.134,21.28,69.082,69.082,0,0,1-5.281,18.116,53.477,53.477,0,0,1-8.178,13.057,40.665,40.665,0,0,1-9.448,8.111,38.995,38.995,0,0,1-11.409,4.456,63.906,63.906,0,0,1-14.617,1.515Zm15.063-12.434h18.071a46.3,46.3,0,0,0,13.369-1.56,23.084,23.084,0,0,0,8.289-4.456,33.068,33.068,0,0,0,7.91-10.718,57.4,57.4,0,0,0,4.813-16.311c1.426-8.913,1.047-15.6-1.092-20.388a17.514,17.514,0,0,0-9.091-9.559,40.955,40.955,0,0,0-14.194-1.738H408.763Z" transform="translate(792.785 500.43)" fill="#f60"/>
    </g>
  </g>
</svg>
