<svg xmlns="http://www.w3.org/2000/svg" width="40.481" height="33.539" viewBox="0 0 40.481 33.539">
  <g id="KAPTEN-LIVECHAT" transform="translate(-9.97 -11.462)">
    <g id="Group_8761" data-name="Group 8761" transform="translate(15.957 11.462)">
      <path id="Path_7720" data-name="Path 7720" d="M111.581,35.672q-.137.185-.27.36l-.9-1.8q-.256-.154-.27.18a7.343,7.343,0,0,0-.45,1.036,28.091,28.091,0,0,1,1.531,2.927l1.351.54a.165.165,0,0,0,.18-.09,19.564,19.564,0,0,1-1.081-2.161h.45a26.484,26.484,0,0,1,1.306,2.611,13.452,13.452,0,0,1,5.853,6.664q.379,1.181.81,2.341a4.226,4.226,0,0,1,.135.991.637.637,0,0,1-.18.27,5.853,5.853,0,0,0-.5-1.441,1.921,1.921,0,0,1-.9-1.171q-.712-.93-1.486-1.8a1.374,1.374,0,0,0-.63-.54,12.187,12.187,0,0,0-1.981-1.531,11.62,11.62,0,0,0-1.621-1.081.258.258,0,0,0-.27-.09q-1.6.576-3.152,1.306a20.3,20.3,0,0,0-3.332,1.171,4.341,4.341,0,0,0-.991.225,5.815,5.815,0,0,1-2.431-1.216A18.119,18.119,0,0,1,98.7,41.39a.832.832,0,0,0-.54,0q-2.187,1.655-4.412,3.242a1.439,1.439,0,0,0-.45.855Q92.655,46.869,92,48.279a4.717,4.717,0,0,0-.225,1.711h-.09a1.023,1.023,0,0,0-.18-.54,15.261,15.261,0,0,1,5.313-9.23,10.282,10.282,0,0,1,2.431-1.441q.6-1.075,1.261-2.116h.45q-.371.787-.81,1.531a2.721,2.721,0,0,1-.27.315.238.238,0,0,0,.27-.045,3.9,3.9,0,0,0,.63-.27,3.069,3.069,0,0,0,.72-.135q.244-.421.45-.855.626-.942,1.261-1.891a2.465,2.465,0,0,0-.36-1.171q-.005-.3-.225-.18a21.133,21.133,0,0,1-1.4,2.251l-.09-.54a10.7,10.7,0,0,1,1.621-2.3,2.212,2.212,0,0,1,.72-.27,25.566,25.566,0,0,1,6.393.27,4.875,4.875,0,0,1,.855.675Q111.188,34.849,111.581,35.672Z" transform="translate(-91.5 -33.017)" fill="#24201c" fill-rule="evenodd"/>
    </g>
    <g id="Group_8762" data-name="Group 8762" transform="translate(28.743 11.899)">
      <path id="Path_7721" data-name="Path 7721" d="M237.912,38.376h-.18q-1.938.018-3.872-.09h-.18l-.18-.36a26.273,26.273,0,0,1,4.5.09A.415.415,0,0,1,237.912,38.376Z" transform="translate(-233.5 -37.869)" fill="#f8f7f4" fill-rule="evenodd"/>
    </g>
    <g id="Group_8763" data-name="Group 8763" transform="translate(33.156 12.046)">
      <path id="Path_7722" data-name="Path 7722" d="M283.671,39.68a.792.792,0,0,1-.585.36l-.45.991q-.093.167-.135,0a9.226,9.226,0,0,0,.27-1.531A7.377,7.377,0,0,0,283.671,39.68Z" transform="translate(-282.5 -39.5)" fill="#edece6" fill-rule="evenodd"/>
    </g>
    <g id="Group_8764" data-name="Group 8764" transform="translate(27.843 12.311)">
      <path id="Path_7723" data-name="Path 7723" d="M224.13,42.445a2.736,2.736,0,0,0,.36.9,23.042,23.042,0,0,1,.63,3.062h-.63a5.536,5.536,0,0,0-.27-1.351.3.3,0,0,1,.135.18,6,6,0,0,0-.855-2.746A2.246,2.246,0,0,1,224.13,42.445Z" transform="translate(-223.5 -42.439)" fill="#f1c826" fill-rule="evenodd"/>
    </g>
    <g id="Group_8765" data-name="Group 8765" transform="translate(24.601 12.371)">
      <path id="Path_7724" data-name="Path 7724" d="M190.2,43.321a25.75,25.75,0,0,1-2.071,4.052,3.9,3.9,0,0,1-.63.27v-.27q.44-.744.81-1.531a.6.6,0,0,0,.27-.45,21.128,21.128,0,0,0,1.4-2.251Q190.2,43.017,190.2,43.321Z" transform="translate(-187.5 -43.105)" fill="#f7f6f2" fill-rule="evenodd"/>
    </g>
    <g id="Group_8766" data-name="Group 8766" transform="translate(29.104 12.316)">
      <path id="Path_7725" data-name="Path 7725" d="M237.5,42.5q1.934.108,3.872.09a23.909,23.909,0,0,0-.991,3.962.865.865,0,0,0-.54.09,9.479,9.479,0,0,1-1.531-.09A15.015,15.015,0,0,0,237.5,42.5Z" transform="translate(-237.5 -42.5)" fill="#f8cf23" fill-rule="evenodd"/>
    </g>
    <g id="Group_8767" data-name="Group 8767" transform="translate(27.483 11.866)">
      <path id="Path_7726" data-name="Path 7726" d="M220.671,37.95h-.18a2.245,2.245,0,0,0-.63.045,6,6,0,0,1,.855,2.746.3.3,0,0,0-.135-.18A28.045,28.045,0,0,0,219.5,37.68q.471-.1.946-.18A.438.438,0,0,1,220.671,37.95Z" transform="translate(-219.5 -37.5)" fill="#f4f0e4" fill-rule="evenodd"/>
    </g>
    <g id="Group_8768" data-name="Group 8768" transform="translate(32.165 12.224)">
      <path id="Path_7727" data-name="Path 7727" d="M273.661,41.475a.165.165,0,0,1,.18.09,16.867,16.867,0,0,0-1.621,4.052,2.921,2.921,0,0,1-.72-.045.2.2,0,0,0,.09-.135l.9-2.611q.042.167.135,0l.45-.991A.792.792,0,0,0,273.661,41.475Z" transform="translate(-271.5 -41.472)" fill="#efc826" fill-rule="evenodd"/>
    </g>
    <g id="Group_8769" data-name="Group 8769" transform="translate(34.596 12.628)">
      <path id="Path_7728" data-name="Path 7728" d="M299.671,47.81a1.137,1.137,0,0,0,.36.63,19.575,19.575,0,0,0,1.081,2.161.165.165,0,0,1-.18.09q-1.147-2.3-2.431-4.5.014-.334.27-.18Z" transform="translate(-298.5 -45.961)" fill="#eeebe2" fill-rule="evenodd"/>
    </g>
    <g id="Group_8770" data-name="Group 8770" transform="translate(28.473 12.316)">
      <path id="Path_7729" data-name="Path 7729" d="M230.5,42.5h.18a3.509,3.509,0,0,1,.18.9A2.736,2.736,0,0,1,230.5,42.5Z" transform="translate(-230.5 -42.5)" fill="#ca9016" fill-rule="evenodd"/>
    </g>
    <g id="Group_8771" data-name="Group 8771" transform="translate(25.232 12.586)">
      <path id="Path_7730" data-name="Path 7730" d="M196.571,45.5a2.465,2.465,0,0,1,.36,1.171,2.6,2.6,0,0,0-.675.72,5.334,5.334,0,0,0-.585,1.171q-.206.435-.45.855a3.069,3.069,0,0,1-.72.135A25.75,25.75,0,0,0,196.571,45.5Z" transform="translate(-194.5 -45.5)" fill="#f4cd2a" fill-rule="evenodd"/>
    </g>
    <g id="Group_8772" data-name="Group 8772" transform="translate(34.146 12.856)">
      <path id="Path_7731" data-name="Path 7731" d="M293.95,48.5q1.284,2.207,2.431,4.5l-1.351-.54a28.087,28.087,0,0,0-1.531-2.927A7.337,7.337,0,0,1,293.95,48.5Z" transform="translate(-293.5 -48.5)" fill="#f3cc27" fill-rule="evenodd"/>
    </g>
    <g id="Group_8773" data-name="Group 8773" transform="translate(28.923 12.316)">
      <path id="Path_7732" data-name="Path 7732" d="M235.5,42.5h.18a15.014,15.014,0,0,1,.81,4.052h-.36A10.032,10.032,0,0,0,236,44.661Q235.7,43.588,235.5,42.5Z" transform="translate(-235.5 -42.5)" fill="#d29611" fill-rule="evenodd"/>
    </g>
    <g id="Group_8774" data-name="Group 8774" transform="translate(11.499 14.113)">
      <path id="Path_7733" data-name="Path 7733" d="M56.094,62.459l.09.54a.6.6,0,0,1-.27.45h-.45Q42.818,62,43.037,74.705h-.991a13.609,13.609,0,0,1,2.3-8.825A9.19,9.19,0,0,1,50.6,62.5Q53.375,62.44,56.094,62.459Z" transform="translate(-42.001 -62.454)" fill="#2e3641" fill-rule="evenodd"/>
    </g>
    <g id="Group_8775" data-name="Group 8775" transform="translate(35.767 14.111)">
      <path id="Path_7734" data-name="Path 7734" d="M311.77,62.443q2.027-.022,4.052.045,6.938.859,8.51,7.7a15.935,15.935,0,0,1,.405,4.5h-.991a13.375,13.375,0,0,0-2.026-8.014,8.014,8.014,0,0,0-5.988-3.2q-1.71-.068-3.422-.045h-.45a1.137,1.137,0,0,1-.36-.63Q311.633,62.628,311.77,62.443Z" transform="translate(-311.5 -62.438)" fill="#2f3641" fill-rule="evenodd"/>
    </g>
    <g id="Group_8776" data-name="Group 8776" transform="translate(26.402 13.937)">
      <path id="Path_7735" data-name="Path 7735" d="M208.851,60.5q.428,1.1.81,2.251a17.03,17.03,0,0,0-2.026.27l-.135-.09Q208.211,61.734,208.851,60.5Z" transform="translate(-207.5 -60.5)" fill="#d0910d" fill-rule="evenodd"/>
    </g>
    <g id="Group_8777" data-name="Group 8777" transform="translate(31.985 12.406)">
      <path id="Path_7736" data-name="Path 7736" d="M270.491,43.5h.18q-.43,1.63-.945,3.242a1.661,1.661,0,0,0-.045.54l-.18.18A23.909,23.909,0,0,1,270.491,43.5Z" transform="translate(-269.5 -43.5)" fill="#da9d15" fill-rule="evenodd"/>
    </g>
    <g id="Group_8778" data-name="Group 8778" transform="translate(33.156 14.205)">
      <path id="Path_7737" data-name="Path 7737" d="M283.31,63.475a.165.165,0,0,1,.18.09q.58,1.2,1.081,2.431-1.032-.194-2.071-.36Q282.96,64.572,283.31,63.475Z" transform="translate(-282.5 -63.472)" fill="#d1910d" fill-rule="evenodd"/>
    </g>
    <g id="Group_8779" data-name="Group 8779" transform="translate(26.402 13.757)">
      <path id="Path_7738" data-name="Path 7738" d="M208.761,58.5q-.635.949-1.261,1.891a5.336,5.336,0,0,1,.585-1.171A2.6,2.6,0,0,1,208.761,58.5Z" transform="translate(-207.5 -58.5)" fill="#cf9410" fill-rule="evenodd"/>
    </g>
    <g id="Group_8782" data-name="Group 8782" transform="translate(31.445 16.188)">
      <path id="Path_7741" data-name="Path 7741" d="M264.22,85.5h.09a.2.2,0,0,1-.09.135,2.921,2.921,0,0,0,.72.045,5.817,5.817,0,0,1-1.441.09.865.865,0,0,1,.54-.09Z" transform="translate(-263.5 -85.5)" fill="#7e6920" fill-rule="evenodd"/>
    </g>
    <g id="Group_8783" data-name="Group 8783" transform="translate(29.104 16.728)">
      <path id="Path_7742" data-name="Path 7742" d="M237.5,91.5q1.757.011,3.512.09v.36a.08.08,0,0,0-.09.09.824.824,0,0,1-.45.09.279.279,0,0,0-.27.09q.339,1.54.54,3.107a.966.966,0,0,1-.18.585q-.388-1.83-.63-3.692a8.2,8.2,0,0,0-1.711-.09,10.77,10.77,0,0,1-.315,2.071,2.244,2.244,0,0,1-.045-.63,13.371,13.371,0,0,1,.18-1.531h-.27a.516.516,0,0,1-.27-.09Z" transform="translate(-237.5 -91.5)" fill="#faf6ea" fill-rule="evenodd"/>
    </g>
    <g id="Group_8784" data-name="Group 8784" transform="translate(24.331 16.638)">
      <path id="Path_7743" data-name="Path 7743" d="M184.77,90.5v.27a.238.238,0,0,1-.27.045A2.722,2.722,0,0,0,184.77,90.5Z" transform="translate(-184.5 -90.5)" fill="#c8ae41" fill-rule="evenodd"/>
    </g>
    <g id="Group_8785" data-name="Group 8785" transform="translate(27.779 16.728)">
      <path id="Path_7744" data-name="Path 7744" d="M224.112,91.5v.45q-.2,1.7-.54,3.377l.09.315q.447-1.781.72-3.6h.27a13.371,13.371,0,0,0-.18,1.531q-.276,1.129-.54,2.3a5.433,5.433,0,0,0,1.171.855,8.63,8.63,0,0,0,2.071-.81.966.966,0,0,0,.18-.585q-.2-1.566-.54-3.107a.279.279,0,0,1,.27-.09q.333,1.791.54,3.6h.36q-.235-1.845-.45-3.692a.08.08,0,0,1,.09-.09,33.561,33.561,0,0,0,.81,4.142,20.847,20.847,0,0,0-3.647,1.441,11.965,11.965,0,0,1-1.936-1.036.921.921,0,0,1,0-.675h.27Q223.551,93.632,224.112,91.5Z" transform="translate(-222.788 -91.5)" fill="#d59610" fill-rule="evenodd"/>
    </g>
    <g id="Group_8786" data-name="Group 8786" transform="translate(28.563 17.179)">
      <path id="Path_7745" data-name="Path 7745" d="M232.04,96.5a.516.516,0,0,0,.27.09q-.274,1.821-.72,3.6l-.09-.315Q231.836,98.2,232.04,96.5Z" transform="translate(-231.5 -96.5)" fill="#f4c81d" fill-rule="evenodd"/>
    </g>
    <g id="Group_8787" data-name="Group 8787" transform="translate(28.923 17.348)">
      <path id="Path_7746" data-name="Path 7746" d="M238.742,102.17a8.63,8.63,0,0,1-2.071.81,5.433,5.433,0,0,1-1.171-.855q.264-1.167.54-2.3a2.245,2.245,0,0,0,.045.63,10.772,10.772,0,0,0,.315-2.071,8.2,8.2,0,0,1,1.711.09Q238.354,100.34,238.742,102.17Z" transform="translate(-235.5 -98.377)" fill="#f8d023" fill-rule="evenodd"/>
    </g>
    <g id="Group_8788" data-name="Group 8788" transform="translate(32.075 17.269)">
      <path id="Path_7747" data-name="Path 7747" d="M270.95,97.5q.215,1.847.45,3.692h-.36q-.207-1.811-.54-3.6A.824.824,0,0,0,270.95,97.5Z" transform="translate(-270.5 -97.5)" fill="#f7cc1f" fill-rule="evenodd"/>
    </g>
    <g id="Group_8789" data-name="Group 8789" transform="translate(17.758 19.79)">
      <path id="Path_7748" data-name="Path 7748" d="M130.86,126.04a.279.279,0,0,1-.09.27,64.776,64.776,0,0,1-6.664,2.837q-.38.085-.765.135a51.711,51.711,0,0,1-6.078-2.972,4.062,4.062,0,0,1-.5,1.351q-.543.246-.585-.36a2.817,2.817,0,0,0,.045-1.081,52.012,52.012,0,0,1-4.728,3.422,1.439,1.439,0,0,1,.45-.855q2.225-1.586,4.412-3.242a.833.833,0,0,1,.54,0,18.117,18.117,0,0,0,4.052,1.981,5.815,5.815,0,0,0,2.431,1.216,4.341,4.341,0,0,1,.991-.225,20.3,20.3,0,0,1,3.332-1.171Q129.256,126.617,130.86,126.04Z" transform="translate(-111.5 -125.5)" fill="#f8f6f1" fill-rule="evenodd"/>
    </g>
    <g id="Group_8790" data-name="Group 8790" transform="translate(16.227 20.42)">
      <path id="Path_7749" data-name="Path 7749" d="M115.661,132.5a11.62,11.62,0,0,1,1.621,1.081q2.229,2.245,4.277,4.682l.63,1.171q.155,1.394.27,2.791a1.662,1.662,0,0,0,.045-.54q.136,1.552.18,3.152a3.418,3.418,0,0,0-.5.9,23.482,23.482,0,0,0-.72-4.953,4.507,4.507,0,0,0-1.216-1.891,29.4,29.4,0,0,0-4.412-4.232,21.728,21.728,0,0,0-3.512,1.126q-2.082,1.086-4.232,2.026a9.3,9.3,0,0,1-1.981-.765,47.908,47.908,0,0,0-5.043-2.341,1.472,1.472,0,0,0-1.351.45,24.809,24.809,0,0,0-3.287,3.827,17.646,17.646,0,0,0-1.486,5.043l-.18.54a6.412,6.412,0,0,0-.27-.81,9.96,9.96,0,0,0,.135-1.351,11.214,11.214,0,0,1,.991-3.062,21.452,21.452,0,0,1,4.187-5.088,2.272,2.272,0,0,1,.9,0,40.528,40.528,0,0,1,7.294,3.017q2.875-1.438,5.673-3.017a3.8,3.8,0,0,1,1.981-.405A4.333,4.333,0,0,1,115.661,132.5Z" transform="translate(-94.5 -132.5)" fill="#d8970d" fill-rule="evenodd"/>
    </g>
    <g id="Group_8791" data-name="Group 8791" transform="translate(16.137 20.324)">
      <path id="Path_7750" data-name="Path 7750" d="M114.481,131.433a.258.258,0,0,1,.27.09,4.334,4.334,0,0,0,0,1.351,3.8,3.8,0,0,0-1.981.405q-2.8,1.579-5.673,3.017a40.531,40.531,0,0,0-7.294-3.017,2.273,2.273,0,0,0-.9,0,21.453,21.453,0,0,0-4.187,5.088,11.213,11.213,0,0,0-.991,3.062,9.959,9.959,0,0,1-.135,1.351H93.5q.109-1.618.09-3.242a4.717,4.717,0,0,1,.225-1.711q.66-1.409,1.306-2.791a52.011,52.011,0,0,0,4.728-3.422,2.817,2.817,0,0,1-.045,1.081q.042.607.585.36a4.062,4.062,0,0,0,.5-1.351,51.714,51.714,0,0,0,6.078,2.972q.386-.05.765-.135a64.769,64.769,0,0,0,6.664-2.836A.279.279,0,0,0,114.481,131.433Z" transform="translate(-93.5 -131.426)" fill="#f7cf24" fill-rule="evenodd"/>
    </g>
    <g id="Group_8792" data-name="Group 8792" transform="translate(23.611 21.411)">
      <path id="Path_7751" data-name="Path 7751" d="M176.59,143.5q.661.14.09.54a.24.24,0,0,1-.18-.225A1.269,1.269,0,0,0,176.59,143.5Z" transform="translate(-176.5 -143.5)" fill="#fffbef" fill-rule="evenodd"/>
    </g>
    <g id="Group_8793" data-name="Group 8793" transform="translate(16.132 22.582)">
      <path id="Path_7752" data-name="Path 7752" d="M121.723,166.675a1.083,1.083,0,0,1-.09.54,23.272,23.272,0,0,1-1.531,3.332,14.46,14.46,0,0,1-.991,1.171.146.146,0,0,1-.09-.18q.644-.994,1.261-2.026a3.973,3.973,0,0,0-1.081.135q-3.469.6-6.934.991a76.716,76.716,0,0,1-10.806-.54l-.63-.18a3.111,3.111,0,0,0-2.026-.991l-.54-.18a2.794,2.794,0,0,0-1.126.36q-.9-.163-1.8-.36a1.052,1.052,0,0,0-.63-.135q.627,1.14,1.171,2.3a.08.08,0,0,1-.09.09,4.105,4.105,0,0,0-.63-.81,17.861,17.861,0,0,1-1.621-3.962,1.392,1.392,0,0,1-.09-.63h.09a6.41,6.41,0,0,1,.27.81.3.3,0,0,0,.135.27,3.687,3.687,0,0,0,.045-.81,17.645,17.645,0,0,1,1.486-5.043A24.809,24.809,0,0,1,98.761,157a1.472,1.472,0,0,1,1.351-.45,47.905,47.905,0,0,1,5.043,2.341,9.3,9.3,0,0,0,1.981.765q2.15-.94,4.232-2.026a21.734,21.734,0,0,1,3.512-1.126,29.4,29.4,0,0,1,4.412,4.232,4.507,4.507,0,0,1,1.216,1.891,23.485,23.485,0,0,1,.72,4.953A3.418,3.418,0,0,1,121.723,166.675Z" transform="translate(-93.443 -156.5)" fill="#211d1a" fill-rule="evenodd"/>
    </g>
    <g id="Group_8794" data-name="Group 8794" transform="translate(39.009 21.501)">
      <path id="Path_7753" data-name="Path 7753" d="M347.5,144.5a12.186,12.186,0,0,1,1.981,1.531,1.374,1.374,0,0,0,.63.54q.774.872,1.486,1.8a1.921,1.921,0,0,0,.9,1.171,5.858,5.858,0,0,1,.5,1.441.515.515,0,0,1-.09.27,3.454,3.454,0,0,0-.18,1.351,1.666,1.666,0,0,1-.045.54q-.115-1.4-.27-2.791l-.63-1.171Q349.729,146.745,347.5,144.5Z" transform="translate(-347.5 -144.5)" fill="#efc621" fill-rule="evenodd"/>
    </g>
    <g id="Group_8795" data-name="Group 8795" transform="translate(40.99 23.032)">
      <path id="Path_7754" data-name="Path 7754" d="M369.5,161.5a1.374,1.374,0,0,1,.63.54A1.374,1.374,0,0,1,369.5,161.5Z" transform="translate(-369.5 -161.5)" fill="#9c9683" fill-rule="evenodd"/>
    </g>
    <g id="Group_8796" data-name="Group 8796" transform="translate(10.008 26.363)">
      <path id="Path_7755" data-name="Path 7755" d="M26.974,198.5h.991a1.179,1.179,0,0,1,1.261.9v3.422a6.271,6.271,0,0,1-1.531,2.476,1.758,1.758,0,0,1-2.251-.225q-.023-2.7.045-5.4A1.75,1.75,0,0,1,26.974,198.5Z" transform="translate(-25.438 -198.495)" fill="#ea038b" fill-rule="evenodd"/>
    </g>
    <g id="Group_8797" data-name="Group 8797" transform="translate(46.747 26.358)">
      <path id="Path_7756" data-name="Path 7756" d="M434.7,198.447h.991a2.626,2.626,0,0,1,1.4,1.261q.068,2.7.045,5.4a1.833,1.833,0,0,1-2.837-.54,10.219,10.219,0,0,1-.81-1.621q-.067-1.8-.045-3.6A1.077,1.077,0,0,1,434.7,198.447Z" transform="translate(-433.437 -198.441)" fill="#ea038b" fill-rule="evenodd"/>
    </g>
    <g id="Group_8798" data-name="Group 8798" transform="translate(13.795 27.187)">
      <path id="Path_7757" data-name="Path 7757" d="M69.661,208.35a1.023,1.023,0,0,1,.18.54,2.411,2.411,0,0,0-2.341.99v-2.161A2.1,2.1,0,0,1,69.661,208.35Z" transform="translate(-67.5 -207.642)" fill="#383f48" fill-rule="evenodd"/>
    </g>
    <g id="Group_8799" data-name="Group 8799" transform="translate(44.412 27.182)">
      <path id="Path_7758" data-name="Path 7758" d="M409.751,207.674v2.071a8.87,8.87,0,0,0-.81-.675q-.763-.177-1.441-.405a.516.516,0,0,0,.09-.27.636.636,0,0,0,.18-.27,3.827,3.827,0,0,1,.991-.5A2.18,2.18,0,0,1,409.751,207.674Z" transform="translate(-407.5 -207.592)" fill="#383f48" fill-rule="evenodd"/>
    </g>
    <g id="Group_8800" data-name="Group 8800" transform="translate(13.795 28.414)">
      <path id="Path_7759" data-name="Path 7759" d="M69.841,221.291h.09q.019,1.623-.09,3.242a1.392,1.392,0,0,0,.09.63,1.878,1.878,0,0,0-.09.81,2.812,2.812,0,0,1-.45,1.171,2.48,2.48,0,0,1-1.081.63,2.149,2.149,0,0,1-.81-.09v-5.4A2.411,2.411,0,0,1,69.841,221.291Z" transform="translate(-67.5 -221.27)" fill="#474f5b" fill-rule="evenodd"/>
    </g>
    <g id="Group_8801" data-name="Group 8801" transform="translate(44.225 28.255)">
      <path id="Path_7760" data-name="Path 7760" d="M405.613,219.5q.678.228,1.441.405a8.874,8.874,0,0,1,.81.675v5.493a2.632,2.632,0,0,1-.81.09,2.964,2.964,0,0,1-.81-.45h-.09a3.7,3.7,0,0,1-.63-1.171,1.083,1.083,0,0,0,.09-.54q-.044-1.6-.18-3.152A3.453,3.453,0,0,1,405.613,219.5Z" transform="translate(-405.426 -219.5)" fill="#474f5b" fill-rule="evenodd"/>
    </g>
    <g id="Group_8802" data-name="Group 8802" transform="translate(20.909 29.965)">
      <path id="Path_7761" data-name="Path 7761" d="M146.86,238.5a18.9,18.9,0,0,1,3.287.72,4.858,4.858,0,0,1,1.036,1.891.82.82,0,0,0,.09.45,1.181,1.181,0,0,1-.63.09,9.993,9.993,0,0,1-3.782-1.126,6.677,6.677,0,0,1-.36-1.576v-.45Z" transform="translate(-146.5 -238.5)" fill="#01ebf5" fill-rule="evenodd"/>
    </g>
    <g id="Group_8803" data-name="Group 8803" transform="translate(20.81 29.867)">
      <path id="Path_7762" data-name="Path 7762" d="M145.856,237.5h-.36v.45a.865.865,0,0,1-.09-.54A.618.618,0,0,1,145.856,237.5Z" transform="translate(-145.396 -237.402)" fill="#1a6364" fill-rule="evenodd"/>
    </g>
    <g id="Group_8804" data-name="Group 8804" transform="translate(34.867 30.596)">
      <path id="Path_7763" data-name="Path 7763" d="M305.282,245.5h1.351a6.481,6.481,0,0,1-.54,1.936,23.965,23.965,0,0,1-4.232.946l-.36-.09a9.787,9.787,0,0,1,1.351-2.3Q304.073,245.69,305.282,245.5Z" transform="translate(-301.5 -245.5)" fill="#01ebf5" fill-rule="evenodd"/>
    </g>
    <g id="Group_8805" data-name="Group 8805" transform="translate(9.97 30.686)">
      <path id="Path_7764" data-name="Path 7764" d="M28.841,246.5v4.142a1.281,1.281,0,0,1-.81.855q-3.378.651-2.972-2.746a1.758,1.758,0,0,0,2.251.225A6.271,6.271,0,0,0,28.841,246.5Z" transform="translate(-25.015 -246.5)" fill="#c90577" fill-rule="evenodd"/>
    </g>
    <g id="Group_8806" data-name="Group 8806" transform="translate(46.663 27.264)">
      <path id="Path_7765" data-name="Path 7765" d="M432.5,208.5h.09q-.023,1.8.045,3.6a10.217,10.217,0,0,0,.81,1.621,1.833,1.833,0,0,0,2.837.54,10.184,10.184,0,0,1-.045,1.351,2.5,2.5,0,0,1-1.666,1.351h-.991a1.221,1.221,0,0,1-1.081-.9V208.5Z" transform="translate(-432.5 -208.5)" fill="#c40a75" fill-rule="evenodd"/>
    </g>
    <g id="Group_8807" data-name="Group 8807" transform="translate(45.177 28.884)">
      <path id="Path_7766" data-name="Path 7766" d="M416.225,226.488q.088,2.475.09,4.953a.2.2,0,0,1-.135-.09q-.117-2.389-.18-4.773A.257.257,0,0,1,416.225,226.488Z" transform="translate(-416 -226.487)" fill="#d0d2d5" fill-rule="evenodd"/>
    </g>
    <g id="Group_8808" data-name="Group 8808" transform="translate(45.402 28.885)">
      <path id="Path_7767" data-name="Path 7767" d="M418.5,226.5a.2.2,0,0,1,.135.09q.059,1.891.135,3.782a3.134,3.134,0,0,1-.18,1.081Q418.587,228.975,418.5,226.5Z" transform="translate(-418.5 -226.5)" fill="#8e949b" fill-rule="evenodd"/>
    </g>
    <g id="Group_8809" data-name="Group 8809" transform="translate(14.966 28.885)">
      <path id="Path_7768" data-name="Path 7768" d="M80.68,226.5a1.784,1.784,0,0,1,.18.81q-.083,2.028-.225,4.052a.2.2,0,0,1-.135.09Q80.575,228.976,80.68,226.5Z" transform="translate(-80.5 -226.5)" fill="#cbcdd1" fill-rule="evenodd"/>
    </g>
    <g id="Group_8810" data-name="Group 8810" transform="translate(16.127 32.307)">
      <path id="Path_7769" data-name="Path 7769" d="M93.488,264.5a17.86,17.86,0,0,0,1.621,3.962,3.318,3.318,0,0,0,.18.5,2.963,2.963,0,0,1-.36.5,1.864,1.864,0,0,1-.45.09.146.146,0,0,1-.09-.18,1.374,1.374,0,0,1,.63-.675A13.467,13.467,0,0,1,93.4,265.31,1.878,1.878,0,0,1,93.488,264.5Z" transform="translate(-93.388 -264.5)" fill="#f1efe9" fill-rule="evenodd"/>
    </g>
    <g id="Group_8811" data-name="Group 8811" transform="translate(16.497 31.947)">
      <path id="Path_7770" data-name="Path 7770" d="M97.678,260.5a3.687,3.687,0,0,1-.045.81.3.3,0,0,1-.135-.27Z" transform="translate(-97.498 -260.5)" fill="#7c651b" fill-rule="evenodd"/>
    </g>
    <g id="Group_8812" data-name="Group 8812" transform="translate(14.786 28.885)">
      <path id="Path_7771" data-name="Path 7771" d="M78.86,226.5q-.105,2.476-.18,4.953a.966.966,0,0,1-.18-.585q.1-1.867.135-3.737A.869.869,0,0,1,78.86,226.5Z" transform="translate(-78.5 -226.5)" fill="#818890" fill-rule="evenodd"/>
    </g>
    <g id="Group_8813" data-name="Group 8813" transform="translate(25.051 32.577)">
      <path id="Path_7772" data-name="Path 7772" d="M193.04,267.5a1,1,0,0,1,.18.63,1.5,1.5,0,0,1-.72-.09,1.181,1.181,0,0,0,.63-.09A.821.821,0,0,1,193.04,267.5Z" transform="translate(-192.5 -267.5)" fill="#13a2a8" fill-rule="evenodd"/>
    </g>
    <g id="Group_8814" data-name="Group 8814" transform="translate(42.626 33.297)">
      <path id="Path_7773" data-name="Path 7773" d="M389.368,275.5a3.7,3.7,0,0,0,.63,1.171q-.495.21-.585-.36a27.648,27.648,0,0,1-1.261,2.7q-.761.955-.315-.18A23.26,23.26,0,0,0,389.368,275.5Z" transform="translate(-387.673 -275.5)" fill="#f5f3ed" fill-rule="evenodd"/>
    </g>
    <g id="Group_8815" data-name="Group 8815" transform="translate(15.686 33.117)">
      <path id="Path_7774" data-name="Path 7774" d="M88.95,273.5a13.467,13.467,0,0,0,1.621,3.377,1.374,1.374,0,0,0-.63.675,29.93,29.93,0,0,1-1.441-2.882A2.812,2.812,0,0,0,88.95,273.5Z" transform="translate(-88.5 -273.5)" fill="#f6cf2c" fill-rule="evenodd"/>
    </g>
    <g id="Group_8816" data-name="Group 8816" transform="translate(14.606 34.288)">
      <path id="Path_7775" data-name="Path 7775" d="M77.581,286.5a29.931,29.931,0,0,0,1.441,2.882.146.146,0,0,0,.09.18,2.043,2.043,0,0,0,.405.9,58.011,58.011,0,0,1,4.187,4.412,8.757,8.757,0,0,0,1.081-.5.15.15,0,0,0,.045-.225q-2.352-2.329-4.457-4.863a.08.08,0,0,0,.09-.09q2.439,2.491,4.818,5.043a.411.411,0,0,1-.225.405l-1.081.54a51.017,51.017,0,0,0,6.393,1.531,21.322,21.322,0,0,0,9.095-1.036q-.53-.344-1.036-.72a.383.383,0,0,1,0-.36.675.675,0,0,0,.315-.27h.36a2.263,2.263,0,0,1-.36.405,6.6,6.6,0,0,0,1.126.675q.54-.562,1.126-1.081a17.6,17.6,0,0,0,3.962-.63,3.1,3.1,0,0,1-1.441,1.216q-3.735,1.245-7.564,2.161a39.107,39.107,0,0,1-5.043.09,33.91,33.91,0,0,1-11.256-3.422,6.7,6.7,0,0,1-1.216-1.4q-.82-1.407-1.531-2.882-.159-1.181-.405-2.341A2.481,2.481,0,0,0,77.581,286.5Z" transform="translate(-76.5 -286.5)" fill="#26201d" fill-rule="evenodd"/>
    </g>
    <g id="Group_8817" data-name="Group 8817" transform="translate(41.8 34.108)">
      <path id="Path_7776" data-name="Path 7776" d="M381.652,284.86h.09a22.446,22.446,0,0,1-2.431,4.412.824.824,0,0,0-.09-.45.445.445,0,0,0,.27-.045,5.438,5.438,0,0,0-.72-.5h-.27v-.09a14.46,14.46,0,0,0,.991-1.171q-.445,1.135.315.18a27.648,27.648,0,0,0,1.261-2.7Q381.157,285.07,381.652,284.86Z" transform="translate(-378.5 -284.5)" fill="#f3cb29" fill-rule="evenodd"/>
    </g>
    <g id="Group_8818" data-name="Group 8818" transform="translate(40.45 34.468)">
      <path id="Path_7777" data-name="Path 7777" d="M368.092,288.5a2.964,2.964,0,0,0,.81.45,8.206,8.206,0,0,1-1.531,4.863,9.69,9.69,0,0,1-3.872,1.171,20.235,20.235,0,0,1,2.071-1.846.258.258,0,0,0,.09-.225A22.448,22.448,0,0,0,368.092,288.5Z" transform="translate(-363.5 -288.5)" fill="#231f1b" fill-rule="evenodd"/>
    </g>
    <g id="Group_8819" data-name="Group 8819" transform="translate(19.829 34.828)">
      <path id="Path_7778" data-name="Path 7778" d="M138.192,293.671q-.767-.075-1.531-.18-.4-.117-.81-.27-.693-.162-1.351-.36a2.794,2.794,0,0,1,1.126-.36l.54.18A3.111,3.111,0,0,1,138.192,293.671Z" transform="translate(-134.5 -292.5)" fill="#2d1f21" fill-rule="evenodd"/>
    </g>
    <g id="Group_8821" data-name="Group 8821" transform="translate(37.658 35.593)">
      <path id="Path_7780" data-name="Path 7780" d="M336.552,303.024q-1.814,1.786-3.692,3.512h-.36a6.382,6.382,0,0,1,.9-.9,25.65,25.65,0,0,0,2.161-1.981.636.636,0,0,0,.225-.18q.509-1.175,1.126-2.3a.218.218,0,0,0-.18-.045,3.973,3.973,0,0,1,1.081-.135Q337.2,302.03,336.552,303.024Z" transform="translate(-332.5 -300.998)" fill="#d99771" fill-rule="evenodd"/>
    </g>
    <g id="Group_8822" data-name="Group 8822" transform="translate(33.876 35.729)">
      <path id="Path_7781" data-name="Path 7781" d="M304.367,302.5h.991a8.093,8.093,0,0,1-5.673,5.763,17.6,17.6,0,0,1-3.962.63H290.5a1.407,1.407,0,0,0,0-.991h4.592a7.194,7.194,0,0,0,1.981-.18,9.691,9.691,0,0,0,3.872-1.171A6.453,6.453,0,0,0,304.367,302.5Z" transform="translate(-290.5 -302.5)" fill="#2d343f" fill-rule="evenodd"/>
    </g>
    <g id="Group_8823" data-name="Group 8823" transform="translate(18.028 34.828)">
      <path id="Path_7782" data-name="Path 7782" d="M114.5,292.5q.9.2,1.8.36.658.2,1.351.36a.2.2,0,0,0,.09.135l-.72.09a.792.792,0,0,1,.36.135,2.242,2.242,0,0,0-.63.045.414.414,0,0,0-.18.405.5.5,0,0,1-.135-.27,1.148,1.148,0,0,0-.18,1.531,4.617,4.617,0,0,0,2.656,1.8q2.211-.325,1.216-2.341l-.585-.585a7.141,7.141,0,0,1-1.081-.675q.764.1,1.531.18l.63.18a.444.444,0,0,0-.27.045,2.509,2.509,0,0,1,1.036,2.566,2.3,2.3,0,0,1-1.486,1.306,4.116,4.116,0,0,1-1.261.135q-1.26-1.237-2.566-2.431a20.622,20.622,0,0,0-1.171-1.981A3.533,3.533,0,0,1,114.5,292.5Z" transform="translate(-114.5 -292.5)" fill="#fbccc0" fill-rule="evenodd"/>
    </g>
    <g id="Group_8824" data-name="Group 8824" transform="translate(20.096 35.903)">
      <path id="Path_7783" data-name="Path 7783" d="M138.278,304.445q.34.251,0,.54a.694.694,0,0,1-.81-.09.414.414,0,0,1,.18-.405A2.242,2.242,0,0,1,138.278,304.445Z" transform="translate(-137.464 -304.439)" fill="#fefcfb" fill-rule="evenodd"/>
    </g>
    <g id="Group_8825" data-name="Group 8825" transform="translate(19.572 35.548)">
      <path id="Path_7784" data-name="Path 7784" d="M133.257,300.5q.413.153.81.27a7.143,7.143,0,0,0,1.081.675l.585.585q1,2.016-1.216,2.341a4.616,4.616,0,0,1-2.656-1.8,1.148,1.148,0,0,1,.18-1.531.5.5,0,0,0,.135.27.694.694,0,0,0,.81.09q.34-.289,0-.54a.792.792,0,0,0-.36-.135l.72-.09A.2.2,0,0,1,133.257,300.5Z" transform="translate(-131.649 -300.5)" fill="#f9c0bb" fill-rule="evenodd"/>
    </g>
    <g id="Group_8826" data-name="Group 8826" transform="translate(22.17 36.174)">
      <path id="Path_7785" data-name="Path 7785" d="M162.481,307.452a76.726,76.726,0,0,0,10.806.54,1.66,1.66,0,0,1,.54.045,2.627,2.627,0,0,0-.225,2.836,7.443,7.443,0,0,0,.765,1.351,14.148,14.148,0,0,1-2.251.09,2.458,2.458,0,0,0-.45-.315,12.977,12.977,0,0,0-2.161,0,1.011,1.011,0,0,0-.405,1.576,3.248,3.248,0,0,0,.405.315,12.983,12.983,0,0,0,2.161,0,1.433,1.433,0,0,0,.54-.5h2.611a.843.843,0,0,0-.135.72,3.55,3.55,0,0,0,.405.54q-1.9.294-3.782.675a13.1,13.1,0,0,1-2.882.09q-1.665-.195-3.332-.36a32.308,32.308,0,0,1-3.872-.99l.9-.36a.374.374,0,0,0,.045-.405q-.811-.923-1.666-1.8a4.119,4.119,0,0,0,1.261-.135,2.3,2.3,0,0,0,1.486-1.306,2.509,2.509,0,0,0-1.036-2.566A.445.445,0,0,1,162.481,307.452Z" transform="translate(-160.5 -307.447)" fill="#fdd8c5" fill-rule="evenodd"/>
    </g>
    <g id="Group_8827" data-name="Group 8827" transform="translate(33.786 35.725)">
      <path id="Path_7786" data-name="Path 7786" d="M297.6,302.461a.219.219,0,0,1,.18.045q-.617,1.121-1.126,2.3a.636.636,0,0,1-.225.18q-.211-.424-.405-.9a2.477,2.477,0,0,0-2.206-.585q-2.623.007-1.936,2.476a1.77,1.77,0,0,0,.855.765,3.643,3.643,0,0,0,1.531.225,6.384,6.384,0,0,0-.9.9H289.59a.08.08,0,0,1-.09-.09,14.151,14.151,0,0,0,2.251-.09,7.445,7.445,0,0,1-.765-1.351,2.627,2.627,0,0,1,.225-2.837,1.663,1.663,0,0,0-.54-.045Q294.135,303.062,297.6,302.461Z" transform="translate(-289.5 -302.457)" fill="#f8cbbf" fill-rule="evenodd"/>
    </g>
    <g id="Group_8828" data-name="Group 8828" transform="translate(20.459 36.446)">
      <path id="Path_7787" data-name="Path 7787" d="M141.95,310.468a2.185,2.185,0,0,1,2.206,1.261.8.8,0,0,1-.81.99,2.745,2.745,0,0,1-1.711-1.171,2.4,2.4,0,0,0-.135-.585A3.6,3.6,0,0,1,141.95,310.468Z" transform="translate(-141.5 -310.465)" fill="#f7b8b8" fill-rule="evenodd"/>
    </g>
    <g id="Group_8829" data-name="Group 8829" transform="translate(36.03 36.709)">
      <path id="Path_7788" data-name="Path 7788" d="M319.107,314.926a25.631,25.631,0,0,1-2.161,1.981,3.642,3.642,0,0,1-1.531-.225,1.77,1.77,0,0,1-.855-.765q-.687-2.47,1.936-2.476a2.477,2.477,0,0,1,2.206.585Q318.9,314.5,319.107,314.926Z" transform="translate(-314.417 -313.385)" fill="#f9c0bb" fill-rule="evenodd"/>
    </g>
    <g id="Group_8830" data-name="Group 8830" transform="translate(37.028 37.118)">
      <path id="Path_7789" data-name="Path 7789" d="M326.22,318.253a.628.628,0,0,1-.36.27h-.36q0-.652.63-.585A.4.4,0,0,1,326.22,318.253Z" transform="translate(-325.5 -317.932)" fill="#fefbfb" fill-rule="evenodd"/>
    </g>
    <g id="Group_8831" data-name="Group 8831" transform="translate(17.217 36.269)">
      <path id="Path_7790" data-name="Path 7790" d="M106.13,308.5a4.105,4.105,0,0,1,.63.81q2.105,2.533,4.457,4.863a.15.15,0,0,1-.045.225,8.771,8.771,0,0,1-1.081.5,58.013,58.013,0,0,0-4.187-4.412,2.044,2.044,0,0,1-.405-.9,1.863,1.863,0,0,0,.45-.09,2.964,2.964,0,0,0,.36-.5A3.32,3.32,0,0,1,106.13,308.5Z" transform="translate(-105.5 -308.5)" fill="#d69510" fill-rule="evenodd"/>
    </g>
    <g id="Group_8832" data-name="Group 8832" transform="translate(17.487 37.124)">
      <path id="Path_7791" data-name="Path 7791" d="M108.68,318.135a1.157,1.157,0,0,1,.45-.135.709.709,0,0,1-.63.36A.635.635,0,0,0,108.68,318.135Z" transform="translate(-108.5 -318)" fill="#372b19" fill-rule="evenodd"/>
    </g>
    <g id="Group_8833" data-name="Group 8833" transform="translate(36.758 37.349)">
      <path id="Path_7792" data-name="Path 7792" d="M323.13,320.86a.628.628,0,0,0,.36-.27,3.179,3.179,0,0,0,1.036-.09.978.978,0,0,1,.991,1.261,1.8,1.8,0,0,1-1.666.9,1.24,1.24,0,0,1-1.351-1.081A.7.7,0,0,1,323.13,320.86Z" transform="translate(-322.5 -320.5)" fill="#f7b7b7" fill-rule="evenodd"/>
    </g>
    <g id="Group_8834" data-name="Group 8834" transform="translate(41.8 37.89)">
      <path id="Path_7793" data-name="Path 7793" d="M378.5,326.5h.27a2.65,2.65,0,0,0,.45.54.824.824,0,0,1,.09.45.52.52,0,0,1-.5-.18A1.73,1.73,0,0,1,378.5,326.5Z" transform="translate(-378.5 -326.5)" fill="#faf3e9" fill-rule="evenodd"/>
    </g>
    <g id="Group_8835" data-name="Group 8835" transform="translate(42.07 37.89)">
      <path id="Path_7794" data-name="Path 7794" d="M381.5,326.5a5.438,5.438,0,0,1,.72.5.444.444,0,0,1-.27.045A2.649,2.649,0,0,1,381.5,326.5Z" transform="translate(-381.5 -326.5)" fill="#443821" fill-rule="evenodd"/>
    </g>
    <g id="Group_8836" data-name="Group 8836" transform="translate(27.118 38.07)">
      <path id="Path_7795" data-name="Path 7795" d="M215.452,328.5a10.092,10.092,0,0,0,2.341.945,6.723,6.723,0,0,0,3.062-.315l.18.09a.929.929,0,0,1-.45.315,5.379,5.379,0,0,1-5.088-.765A.444.444,0,0,1,215.452,328.5Z" transform="translate(-215.447 -328.5)" fill="#302a25" fill-rule="evenodd"/>
    </g>
    <g id="Group_8837" data-name="Group 8837" transform="translate(38.469 37.89)">
      <path id="Path_7796" data-name="Path 7796" d="M344.832,326.5a1.731,1.731,0,0,0,.315.81.52.52,0,0,0,.5.18.257.257,0,0,1-.09.225,20.244,20.244,0,0,0-2.071,1.846,7.2,7.2,0,0,1-1.981.18Z" transform="translate(-341.5 -326.5)" fill="#d59011" fill-rule="evenodd"/>
    </g>
    <g id="Group_8838" data-name="Group 8838" transform="translate(38.018 37.62)">
      <path id="Path_7797" data-name="Path 7797" d="M340.192,323.5a.146.146,0,0,0,.09.18v.09l-3.332,3.242h-.45Q338.377,325.286,340.192,323.5Z" transform="translate(-336.5 -323.5)" fill="#362222" fill-rule="evenodd"/>
    </g>
    <g id="Group_8839" data-name="Group 8839" transform="translate(30.549 40.681)">
      <path id="Path_7798" data-name="Path 7798" d="M256.793,357.86a.08.08,0,0,0,.09.09,1.407,1.407,0,0,1,0,.991,1.432,1.432,0,0,1-.54.5,12.99,12.99,0,0,1-2.161,0,3.25,3.25,0,0,1-.405-.315,1.011,1.011,0,0,1,.405-1.576,12.977,12.977,0,0,1,2.161,0A2.451,2.451,0,0,1,256.793,357.86Z" transform="translate(-253.556 -357.5)" fill="#242b34" fill-rule="evenodd"/>
    </g>
    <g id="Group_8840" data-name="Group 8840" transform="translate(36.848 42.122)">
      <path id="Path_7799" data-name="Path 7799" d="M323.86,373.5h1.891q-.586.518-1.126,1.081a6.6,6.6,0,0,1-1.126-.675A2.267,2.267,0,0,0,323.86,373.5Z" transform="translate(-323.5 -373.5)" fill="#d2920d" fill-rule="evenodd"/>
    </g>
    <g id="Group_8841" data-name="Group 8841" transform="translate(17.397 34.688)">
      <path id="Path_7800" data-name="Path 7800" d="M108.13,291.082a3.533,3.533,0,0,0,.405.991,20.629,20.629,0,0,1,1.171,1.981q1.306,1.194,2.566,2.431.855.877,1.666,1.8a.374.374,0,0,1-.045.405l-.9.36a32.321,32.321,0,0,0,3.872.99q1.667.165,3.332.36a13.1,13.1,0,0,0,2.882-.09q1.883-.381,3.782-.675a3.549,3.549,0,0,1-.405-.54.843.843,0,0,1,.135-.72h.36a.674.674,0,0,1-.315.27.383.383,0,0,0,0,.36q.506.377,1.036.72a21.323,21.323,0,0,1-9.095,1.036,51.005,51.005,0,0,1-6.393-1.531l1.081-.54a.411.411,0,0,0,.225-.405q-2.379-2.552-4.818-5.043-.544-1.157-1.171-2.3A1.052,1.052,0,0,1,108.13,291.082Z" transform="translate(-107.5 -290.942)" fill="#db9c72" fill-rule="evenodd"/>
    </g>
  </g>
</svg>
